<svg version="1.0" xmlns="http://www.w3.org/2000/svg" width="512.000000ptpx" height="512.000000ptpx" viewBox="0 0 512.000000 512.000000" preserveAspectRatio="xMidYMid meet" transform="rotate(0) scale(1, 1)">

<g transform="translate(0.000000,512.000000) scale(0.100000,-0.100000)" fill="#2a9d8f" stroke="none">
<path d="M84 4860 c-25 -13 -49 -35 -62 -59 l-22 -39 2 -1890 3 -1891 21 -27&#10;c11 -15 33 -37 48 -48 27 -21 39 -21 702 -24 l674 -3 0 -169 0 -170 -269 0&#10;c-262 0 -269 -1 -301 -22 -54 -37 -74 -72 -74 -128 0 -54 18 -87 68 -124 l27&#10;-21 1659 0 1659 0 27 21 c50 37 68 70 68 124 0 56 -20 91 -74 128 -32 21 -39&#10;22 -301 22 l-269 0 0 170 0 169 674 3 c663 3 675 3 702 24 15 11 37 33 48 48&#10;l21 27 3 1891 2 1890 -22 39 c-14 25 -37 46 -63 59 -41 20 -62 20 -2476 20&#10;-2421 0 -2434 0 -2475 -20z m4736 -1980 l0 -1700 -2260 0 -2260 0 0 495 0 495&#10;410 0 410 0 0 -117 c0 -65 5 -149 10 -186 19 -131 106 -248 225 -304 59 -27&#10;63 -28 245 -28 l185 0 59 30 c112 56 193 163 216 284 14 75 13 1119 -1 1197&#10;-16 89 -63 177 -129 244 -62 64 -62 73 1 85 57 11 98 41 119 88 24 53 24 71 0&#10;124 -29 64 -67 83 -168 83 -46 0 -93 -5 -105 -11 -12 -6 -48 -36 -79 -67 -32&#10;-31 -59 -54 -62 -51 -2 2 -40 76 -84 164 -109 219 -172 287 -319 343 l-68 26&#10;-432 4 -433 3 0 250 0 249 2260 0 2260 0 0 -1700z m-3705 889 c70 -20 90 -42&#10;164 -189 39 -76 71 -141 71 -144 0 -3 -236 -6 -525 -6 l-525 0 0 175 0 175&#10;388 0 c252 0 401 -4 427 -11z m553 -653 c41 -21 81 -68 92 -107 17 -60 19 -59&#10;-92 -59 -78 0 -111 -4 -138 -18 -107 -53 -107 -207 0 -263 27 -15 57 -19 137&#10;-19 l103 0 0 -90 0 -90 -735 0 -735 0 0 330 0 330 670 0 c558 0 676 -2 698&#10;-14z m100 -1092 c-3 -146 -3 -146 -31 -170 -26 -22 -36 -24 -138 -24 -61 0&#10;-119 5 -131 11 -36 19 -48 70 -48 197 0 65 3 122 7 125 3 4 82 7 175 7 l169 0&#10;-3 -146z m1602 -1314 l0 -170 -810 0 -810 0 0 170 0 170 810 0 810 0 0 -170z"/>
<path d="M2836 4310 c-51 -16 -77 -52 -172 -243 -100 -200 -107 -227 -76 -287&#10;27 -54 74 -80 143 -80 34 0 59 -4 59 -10 0 -6 -11 -32 -24 -58 -32 -64 -41&#10;-113 -26 -156 31 -95 165 -131 237 -64 14 12 67 107 119 210 104 207 111 239&#10;72 298 -35 51 -67 69 -135 76 -35 4 -63 9 -63 11 0 2 14 30 30 63 37 72 39&#10;124 8 170 -43 63 -109 90 -172 70z"/>
<path d="M2650 3091 c-100 -53 -103 -183 -6 -255 27 -20 41 -21 462 -24 414&#10;-2 437 -2 479 17 108 48 116 198 13 261 -32 19 -52 20 -473 20 -410 0 -443 -1&#10;-475 -19z"/>
<path d="M4092 3090 c-101 -62 -95 -212 11 -260 52 -24 228 -28 280 -6 45 18&#10;84 67 92 116 9 55 -25 125 -75 151 -52 28 -261 28 -308 -1z"/>
<path d="M2653 2449 c-46 -23 -83 -83 -83 -135 0 -42 40 -104 80 -125 31 -17&#10;61 -19 310 -19 308 0 323 3 368 70 20 29 23 44 20 88 -5 61 -28 96 -78 123&#10;-31 17 -61 19 -305 19 -253 0 -273 -1 -312 -21z"/>
<path d="M4100 2452 c-107 -58 -107 -211 0 -264 27 -14 61 -18 151 -18 127 0&#10;157 11 203 73 28 38 28 117 0 154 -45 61 -66 68 -197 71 -105 3 -127 0 -157&#10;-16z"/>
<path d="M2674 1819 c-42 -12 -91 -69 -100 -115 -13 -71 35 -154 99 -169 12&#10;-3 223 -4 469 -3 l448 3 36 37 c32 31 38 45 42 92 4 44 0 62 -18 91 -44 71&#10;-35 70 -515 72 -243 1 -444 -2 -461 -8z"/>
<path d="M4129 1820 c-126 -38 -149 -202 -37 -270 28 -17 51 -20 157 -20 109&#10;0 128 3 159 22 45 28 77 96 67 146 -18 94 -83 132 -225 131 -52 0 -107 -4&#10;-121 -9z"/>
</g>
</svg>